<svg xmlns="http://www.w3.org/2000/svg" version="1.1" xmlns:xlink="http://www.w3.org/1999/xlink" xmlns:svgjs="http://svgjs.dev/svgjs" width="2000" height="722" viewBox="0 0 2000 722"><g transform="matrix(1,0,0,1,-1.2112696095522324,0.7780860730785548)"><svg viewBox="0 0 396 143" data-background-color="#f3e8e0" preserveAspectRatio="xMidYMid meet" height="722" width="2000" xmlns="http://www.w3.org/2000/svg" xmlns:xlink="http://www.w3.org/1999/xlink"><g id="tight-bounds" transform="matrix(1,0,0,1,0.24008861730862918,-0.15390055774352618)"><svg viewBox="0 0 395.52 143.3080090182009" height="143.3080090182009" width="395.52"><g><svg viewBox="0 0 395.52 143.3080090182009" height="143.3080090182009" width="395.52"><g><svg viewBox="0 0 395.52 143.3080090182009" height="143.3080090182009" width="395.52"><g id="textblocktransform"><svg viewBox="0 0 395.52 143.3080090182009" height="143.3080090182009" width="395.52" id="textblock"><g><svg viewBox="0 0 395.52 113.42138376218122" height="113.42138376218122" width="395.52"><path d="M394.594 24.327C392.735 12.554 387.435 9.281 387.435 9.281 371.165-2.846 350.86-0.232 332.619 1.51 300.414 1.581 268.339 4.171 236.208 5.56 168.767 5.772 100.749 2.287 33.643 10.882 27.339 13.519-6.54 11.4 1.121 25.834 3.129 31.838 10.456 38.502 10.232 44.011 11.236 44.977 12.631 42.763 13.226 44.153 15.309 47.896 18.711 46.13 21.501 48.344 17.614 54.254 20.403 59.175 23.062 64.332 18.377 65.674 12.371 65.038 9.675 69.488 9.396 72.714 7.89 72.102 6.235 71.961 5.026 71.866 2.59 72.22 2.999 73.232 4.394 76.693-1.594 78.695 2.162 82.086-0.422 85.759 3.948 88.937 3.353 92.917 3.278 93.717 3.687 94.4 4.338 94.589 7.22 95.601 3.018 97.579 3.464 99.722 33.029 114.367 65.104 104.243 95.394 110.977 103.259 106.267 97.346 112.649 100.489 111.66 102.943 110.506 104.728 115.286 107.499 112.578 107.927 111.801 107.276 109.964 108.8 110.317 109.6 110.506 110.307 110.459 110.418 109.376 110.586 107.751 109.117 108.763 108.726 107.916 112.947 103.63 111.906 113.826 115.866 113.402 115.68 112.154 114.528 110.365 116.889 110.6 119.232 108.81 119.306 107.327 121.389 111.353 121.463 112.225 121.835 112.837 122.43 113.261 128.938 108.881 135.409 114.815 142.233 112.837 146.417 110.671 150.433 114.014 154.672 113.19 156.16 112.531 157.666 111.353 159.098 113.331 176.632 113.755 195.319 111.989 211.943 113.402 256.364 110.765 303.836 114.485 350.674 111 361.719 109.658 373.192 107.751 383.958 106.22 383.958 106.22 392.679 102.029 392.679 83.192S394.538 66.71 394.817 51.711C395.096 36.712 396.398 36.1 394.538 24.327Z" opacity="1" fill="#d8aa92" data-fill-palette-color="tertiary"></path><g transform="matrix(1,0,0,1,55.76832,26.068561146666667)"><svg width="283.98335999999995" viewBox="0.8999999999999999 -42.1 287.27000000000004 62" height="61.28426146884788" data-palette-color="#6a6363"><path d="M49.15-24.15L49.15-24.15Q50.05-24.15 50.05-22.65 50.05-21.15 49.08-16.9 48.1-12.65 45.68-5.4 43.25 1.85 40.7 6.4L40.7 6.4Q41.45 6.35 43.38 6.3 45.3 6.25 46.53 6.2 47.75 6.15 49.48 5.88 51.2 5.6 52.3 5.1L52.3 5.1Q54.95 3.85 55.4 1.4L55.4 1.4Q55.3 0.75 55.48 0.68 55.65 0.6 55.75 0.85L55.75 0.85Q56.1 1.5 56.1 2.25 56.1 3 55.3 4.33 54.5 5.65 52.15 6.63 49.8 7.6 39.95 7.7L39.95 7.7Q37.55 11.3 33.88 14.05 30.2 16.8 26.1 18.35 22 19.9 19.18 19.9 16.35 19.9 14.4 19.25L14.4 19.25Q10.65 18 10.65 15.45L10.65 15.45Q10.65 12.15 16.7 9.65L16.7 9.65Q24.45 6.45 38.3 6.45L38.3 6.45Q43.2-5.55 45.15-12.9L45.15-12.9Q40.6-3.1 35 0.7L35 0.7Q32.05 2.7 29.3 2.7 26.55 2.7 25.03 1.2 23.5-0.3 23.5-2.9L23.5-2.9Q23.5-8.35 30.9-20.4L30.9-20.4Q33.2-24.15 34.6-28L34.6-28Q36.2-32.25 36.2-35.3 36.2-38.35 34.23-39.65 32.25-40.95 29.45-40.95L29.45-40.95Q28.35-40.95 27.1-40.7L27.1-40.7Q18.1-39 10.85-31.35L10.85-31.35Q7.2-27.5 5.5-23.45L5.5-23.45Q3.75-19.1 3.75-16L3.75-16Q3.75-14.7 4.1-13.6L4.1-13.6Q5.1-9.95 8.05-8.6L8.05-8.6Q9.55-7.95 11.15-7.95L11.15-7.95Q16.7-7.95 20.6-14.15L20.6-14.15Q22.8-17.7 22.8-20.35L22.8-20.35Q22.8-23.8 19.7-23.8L19.7-23.8Q19.1-23.8 18.25-23.63 17.4-23.45 17.35-23.75L17.35-23.75Q17.3-24.15 18.5-24.45 19.7-24.75 20.8-24.75L20.8-24.75Q23.4-24.75 24.3-22.55L24.3-22.55Q24.7-21.6 24.7-20.5L24.7-20.5Q24.7-18.3 23.15-15.4L23.15-15.4Q20.1-9.85 14.2-7.4L14.2-7.4Q12.4-6.65 10.9-6.65L10.9-6.65Q6.05-6.65 3.3-10.15L3.3-10.15Q0.9-13.1 0.9-16.9 0.9-20.7 2.75-24.5 4.6-28.3 7.58-31.5 10.55-34.7 13.95-36.9 17.35-39.1 21.1-40.55L21.1-40.55Q25.05-42.1 28.35-42.1 31.65-42.1 34.2-41.1L34.2-41.1Q36.85-39.9 37.95-37.88 39.05-35.85 39.05-33.6L39.05-33.6Q39.05-27.95 34.9-21.05L34.9-21.05Q28.45-10.05 27.1-3.95L27.1-3.95Q26.9-2.9 26.9-1.75 26.9-0.6 27.65 0.4 28.4 1.4 29.85 1.4L29.85 1.4Q31.9 1.4 34.3-0.35L34.3-0.35Q37.15-2.35 40-6.9L40-6.9Q44.75-14.5 47.15-22.45L47.15-22.45Q47.3-23.25 48.05-23.7 48.8-24.15 49.15-24.15ZM13.35 15.95L13.35 15.95Q13.35 16.35 13.55 16.75L13.55 16.75Q14.6 18.45 18.38 18.45 22.15 18.45 25.58 17.2 29 15.95 32.25 13.53 35.5 11.1 37.6 7.7L37.6 7.7Q24.5 7.7 17.5 11.75L17.5 11.75Q13.35 14.15 13.35 15.95ZM49.05-2.9L49.05-2.9Q49.05-5.05 50.9-8.1L50.9-8.1Q50.1-8.1 50.45-8.9L50.45-8.9 51.35-10.65Q53.05-13.9 54.15-16.15L54.15-16.15Q54.65-17.2 56.1-17.2L56.1-17.2 59.15-17.2Q57.35-15.9 55.52-12.18 53.7-8.45 52.7-6.33 51.7-4.2 51.7-3.1 51.7-2 52.07-1.55 52.45-1.1 53.1-1.1L53.1-1.1Q54.05-1.1 55.75-3.1L55.75-3.1Q58.4-6.2 63.2-16.15L63.2-16.15Q63.75-17.2 65.15-17.2L65.15-17.2 67.85-17.2Q66.75-16.35 66.12-15.45 65.5-14.55 64.4-12.25L64.4-12.25Q61.4-6.25 61.05-4.3L61.05-4.3Q60.9-3.6 60.9-3L60.9-3Q60.9-1.4 62-1.3L62-1.3Q64.7-1.3 68.65-9.65L68.65-9.65Q68.95-10.35 69.25-10.2 69.55-10.05 69.55-9.8 69.55-9.55 69.1-8.65 68.65-7.75 68.22-6.9 67.8-6.05 66.92-4.58 66.05-3.1 65.3-2.25L65.3-2.25Q63.35-0.05 61.47-0.05 59.6-0.05 58.9-1.7L58.9-1.7Q58.6-2.45 58.6-3.6 58.6-4.75 59.1-6.45L59.1-6.45Q55.45-0.05 52.35-0.05L52.35-0.05Q49.65-0.05 49.2-2.3L49.2-2.3Q49.05-2.55 49.05-2.9ZM71.4-9.65Q71.35-9.45 70.95-8.28 70.55-7.1 70.27-6.03 70-4.95 70-3.88 70-2.8 70.5-1.88 71-0.95 72.1-0.95L72.1-0.95Q73.9-0.95 75.6-3.38 77.3-5.8 79.2-9.55L79.2-9.55Q79.6-10.25 79.95-10.1L79.95-10.1Q80.2-9.9 80.05-9.58 79.9-9.25 79.42-8.18 78.95-7.1 78.72-6.68 78.5-6.25 77.92-5.18 77.35-4.1 76.92-3.58 76.5-3.05 75.77-2.23 75.05-1.4 74.4-1L74.4-1Q72.65 0.1 71.1 0.1 69.55 0.1 68.7-0.58 67.85-1.25 67.67-2.02 67.5-2.8 67.5-3.4 67.5-4 67.55-4.95L67.55-4.95Q67.7-6.55 68.17-8.05 68.65-9.55 68.7-9.75L68.7-9.75Q69.85-13.9 71.97-18.8 74.1-23.7 75.57-26.18 77.05-28.65 77.9-29.55L77.9-29.55Q79.6-31.35 81.25-31.35L81.25-31.35Q82.4-31.35 82.8-29.7L82.8-29.7Q82.85-29.4 82.85-28.95L82.85-28.95Q82.85-27.25 81.65-24.65L81.65-24.65Q77.35-15.1 71.4-9.65L71.4-9.65ZM71.8-11.25Q74.35-13.85 76.85-17.8 79.35-21.75 80.52-24.53 81.7-27.3 81.7-28.3 81.7-29.3 81.35-29.3L81.35-29.3Q80.85-29.3 79.45-27.33 78.05-25.35 75.67-20.23 73.3-15.1 71.8-11.25L71.8-11.25ZM86.09-19.45Q85.39-18.85 84.54-18.85 83.69-18.85 83.19-19.45 82.69-20.05 82.79-20.9L82.79-20.9Q82.94-21.75 83.64-22.35 84.34-22.95 85.19-22.95 86.04-22.95 86.57-22.35 87.09-21.75 86.94-20.9 86.79-20.05 86.09-19.45ZM81.19-1.1L81.19-1.1Q82.14-1.1 83.19-2.05L83.19-2.05Q85.04-3.9 87.89-9.6L87.89-9.6Q88.24-10.35 88.59-10.05L88.59-10.05Q88.69-9.95 88.69-9.73 88.69-9.5 88.29-8.63 87.89-7.75 87.57-7.05 87.24-6.35 86.32-4.78 85.39-3.2 84.64-2.35L84.64-2.35Q82.59 0 80.77 0 78.94 0 78.14-1.1 77.34-2.2 77.34-3.55 77.34-4.9 77.99-6.5L77.99-6.5 81.19-14.65Q81.29-14.95 81.29-15.45 81.29-15.95 80.69-16.75L80.69-16.75 83.44-16.8Q84.59-16.8 84.79-16.38 84.99-15.95 84.49-15.05L84.49-15.05 80.49-5.7Q79.64-3.85 79.64-2.55L79.64-2.55Q79.64-1.1 81.19-1.1ZM94.79-19.45Q94.09-18.85 93.24-18.85 92.39-18.85 91.89-19.45 91.39-20.05 91.49-20.9L91.49-20.9Q91.64-21.75 92.34-22.35 93.04-22.95 93.89-22.95 94.74-22.95 95.27-22.35 95.79-21.75 95.64-20.9 95.49-20.05 94.79-19.45ZM89.89-1.1L89.89-1.1Q90.84-1.1 91.89-2.05L91.89-2.05Q93.74-3.9 96.59-9.6L96.59-9.6Q96.94-10.35 97.29-10.05L97.29-10.05Q97.39-9.95 97.39-9.73 97.39-9.5 96.99-8.63 96.59-7.75 96.27-7.05 95.94-6.35 95.02-4.78 94.09-3.2 93.34-2.35L93.34-2.35Q91.29 0 89.47 0 87.64 0 86.84-1.1 86.04-2.2 86.04-3.55 86.04-4.9 86.69-6.5L86.69-6.5 89.89-14.65Q89.99-14.95 89.99-15.45 89.99-15.95 89.39-16.75L89.39-16.75 92.14-16.8Q93.29-16.8 93.49-16.38 93.69-15.95 93.19-15.05L93.19-15.05 89.19-5.7Q88.34-3.85 88.34-2.55L88.34-2.55Q88.34-1.1 89.89-1.1ZM111.84-13.55Q110.94-12.65 109.29-9.47 107.64-6.3 107.31-4.73 106.99-3.15 106.99-2.18 106.99-1.2 107.74-1.2L107.74-1.2Q108.69-1.2 110.09-2.95L110.09-2.95Q112.14-5.5 114.14-9.6L114.14-9.6Q114.34-10.05 114.59-10.1L114.59-10.1Q114.99-10.25 114.99-9.8L114.99-9.8Q114.99-9.55 114.84-9.2L114.84-9.2Q110.24 0.1 107.09 0.1L107.09 0.1Q105.64 0.1 104.74-1.3L104.74-1.3Q104.29-2.05 104.29-3.3 104.29-4.55 104.79-6.35L104.79-6.35Q100.79 0.1 97.89 0.1L97.89 0.1Q97.09 0.1 96.44-0.4L96.44-0.4Q94.94-1.45 94.94-4L94.94-4Q94.94-8.9 99.19-13.95L99.19-13.95Q101.59-16.75 105.09-17.6L105.09-17.6Q106.04-17.85 106.89-17.85L106.89-17.85Q109.19-17.85 110.79-16.25L110.79-16.25Q111.29-15.7 111.09-15.2 110.89-14.7 110.24-14.8L110.24-14.8Q109.69-16.6 107.84-16.6L107.84-16.6Q105.69-16.6 102.54-13.2L102.54-13.2Q100.74-11.2 99.19-8.5L99.19-8.5Q97.24-5.25 97.24-3.3 97.24-1.35 98.49-1.35L98.49-1.35Q101.49-1.35 106.34-10.55L106.34-10.55Q107.29-12.4 107.94-13.08 108.59-13.75 109.59-13.75L109.59-13.75Q109.79-13.75 110.61-13.6 111.44-13.45 111.84-13.55L111.84-13.55ZM145.78-17.9L145.78-17.9Q145.78-21.35 142.53-21.35L142.53-21.35Q142.08-21.35 141.43-21.28 140.78-21.2 140.53-21.6L140.53-21.6Q140.13-22.15 141.83-22.35L141.83-22.35Q142.43-22.45 143.03-22.45L143.03-22.45Q145.93-22.45 146.98-19.95L146.98-19.95Q147.43-18.9 147.43-17.28 147.43-15.65 146.03-13.2L146.03-13.2Q143.58-8.75 138.33-6.55L138.33-6.55Q136.58-5.8 134.71-5.8 132.83-5.8 130.83-6.75L130.83-6.75Q127.13-8.5 125.68-12.6L125.68-12.6Q125.13-14.2 125.13-16.63 125.13-19.05 126.48-22.75L126.48-22.75Q129.58-30 136.68-35.1L136.68-35.1Q144.28-40.6 150.88-40.6L150.88-40.6Q156.48-40.6 158.38-36.1L158.38-36.1Q159.23-34.15 159.23-31.4L159.23-31.4Q159.23-30.5 159.13-29.55L159.13-29.55Q158.63-25.2 156.53-19.6L156.53-19.6Q156.18-18.65 156.18-18.32 156.18-18 156.33-18L156.33-18Q156.58-17.95 157.18-19.05L157.18-19.05Q160.88-25.8 165.33-31.15L165.33-31.15Q166.78-32.9 168.83-34L168.83-34Q171.08-35.2 172.86-35.2 174.63-35.2 175.66-33.9 176.68-32.6 176.68-30.45L176.68-30.45Q176.68-25.4 172.73-13.6L172.73-13.6Q171.93-11.25 171.73-10.6L171.73-10.6Q175.78-16.95 181.91-24.58 188.03-32.2 192.78-33.6L192.78-33.6Q193.63-33.85 194.28-33.85L194.28-33.85Q196.18-33.85 196.73-31.95L196.73-31.95Q196.93-31.3 196.93-30.45L196.93-30.45Q196.93-27.9 194.93-23.9L194.93-23.9Q190.83-15.7 189.33-10.85L189.33-10.85Q187.28-4.45 187.28-2.1 187.28 0.25 187.73 1.8L187.73 1.8Q188.63 4.9 192.48 4.9L192.48 4.9Q192.68 4.9 193.31 4.88 193.93 4.85 194.01 5.1 194.08 5.35 193.66 5.55 193.23 5.75 192.81 5.75 192.38 5.75 192.13 5.7L192.13 5.7Q184.23 4.9 184.23-2.4L184.23-2.4Q184.23-5.05 185.31-8.43 186.38-11.8 187.13-13.6L187.13-13.6Q188.33-16.5 192.18-24.95L192.18-24.95Q193.53-28.1 193.53-29.75 193.53-31.4 192.13-31.4L192.13-31.4Q190.18-31.4 186.08-27.4L186.08-27.4Q183.98-25.3 181.53-22.28 179.08-19.25 174.28-11.68 169.48-4.1 168.18-1L168.18-1Q167.03 1.7 165.13 1.7L165.13 1.7Q163.78 1.7 163.53 0.75L163.53 0.75Q163.38 0.35 163.53 0.13 163.68-0.1 164.48-1.55 165.28-3 166.13-4.6 166.98-6.2 168.16-8.95 169.33-11.7 170.33-14.55L170.33-14.55Q172.73-21.6 173.58-29.05L173.58-29.05Q173.68-29.9 173.68-31.18 173.68-32.45 173.01-33.2 172.33-33.95 171.58-33.95L171.58-33.95Q169.13-33.95 166.18-30.25L166.18-30.25Q162.18-25.3 159.23-20.53 156.28-15.75 154.71-12.5 153.13-9.25 151.06-4.67 148.98-0.1 148.86 0.2 148.73 0.5 148.51 0.95 148.28 1.4 148.13 1.8L148.13 1.8Q147.48 3.25 145.33 3.25L145.33 3.25Q144.08 3.25 143.98 2.45L143.98 2.45Q143.98 2.3 144.03 2.1L144.03 2.1Q147.33-3 151.33-13.35L151.33-13.35Q156.43-26.45 156.43-32.45L156.43-32.45Q156.43-39.6 150.53-39.6L150.53-39.6Q146.73-39.6 140.96-35.95 135.18-32.3 131.38-26.6L131.38-26.6Q129.88-24.35 129.13-22.25L129.13-22.25Q127.83-18.4 127.83-16.15L127.83-16.15Q127.83-9.7 132.13-7.65L132.13-7.65Q133.63-6.9 135.18-6.9L135.18-6.9Q140.58-6.9 144.03-12.75L144.03-12.75Q145.78-15.7 145.78-17.9ZM208.73-13.55Q207.83-12.65 206.18-9.47 204.53-6.3 204.21-4.73 203.88-3.15 203.88-2.18 203.88-1.2 204.63-1.2L204.63-1.2Q205.58-1.2 206.98-2.95L206.98-2.95Q209.03-5.5 211.03-9.6L211.03-9.6Q211.23-10.05 211.48-10.1L211.48-10.1Q211.88-10.25 211.88-9.8L211.88-9.8Q211.88-9.55 211.73-9.2L211.73-9.2Q207.13 0.1 203.98 0.1L203.98 0.1Q202.53 0.1 201.63-1.3L201.63-1.3Q201.18-2.05 201.18-3.3 201.18-4.55 201.68-6.35L201.68-6.35Q197.68 0.1 194.78 0.1L194.78 0.1Q193.98 0.1 193.33-0.4L193.33-0.4Q191.83-1.45 191.83-4L191.83-4Q191.83-8.9 196.08-13.95L196.08-13.95Q198.48-16.75 201.98-17.6L201.98-17.6Q202.93-17.85 203.78-17.85L203.78-17.85Q206.08-17.85 207.68-16.25L207.68-16.25Q208.18-15.7 207.98-15.2 207.78-14.7 207.13-14.8L207.13-14.8Q206.58-16.6 204.73-16.6L204.73-16.6Q202.58-16.6 199.43-13.2L199.43-13.2Q197.63-11.2 196.08-8.5L196.08-8.5Q194.13-5.25 194.13-3.3 194.13-1.35 195.38-1.35L195.38-1.35Q198.38-1.35 203.23-10.55L203.23-10.55Q204.18-12.4 204.83-13.08 205.48-13.75 206.48-13.75L206.48-13.75Q206.68-13.75 207.51-13.6 208.33-13.45 208.73-13.55L208.73-13.55ZM213.78-9.65Q213.73-9.45 213.33-8.28 212.93-7.1 212.65-6.03 212.38-4.95 212.38-3.88 212.38-2.8 212.88-1.88 213.38-0.95 214.48-0.95L214.48-0.95Q216.28-0.95 217.98-3.38 219.68-5.8 221.58-9.55L221.58-9.55Q221.98-10.25 222.33-10.1L222.33-10.1Q222.58-9.9 222.43-9.58 222.28-9.25 221.8-8.18 221.33-7.1 221.1-6.68 220.88-6.25 220.3-5.18 219.73-4.1 219.3-3.58 218.88-3.05 218.15-2.23 217.43-1.4 216.78-1L216.78-1Q215.03 0.1 213.48 0.1 211.93 0.1 211.08-0.58 210.23-1.25 210.05-2.02 209.88-2.8 209.88-3.4 209.88-4 209.93-4.95L209.93-4.95Q210.08-6.55 210.55-8.05 211.03-9.55 211.08-9.75L211.08-9.75Q212.23-13.9 214.35-18.8 216.48-23.7 217.95-26.18 219.43-28.65 220.28-29.55L220.28-29.55Q221.98-31.35 223.63-31.35L223.63-31.35Q224.78-31.35 225.18-29.7L225.18-29.7Q225.23-29.4 225.23-28.95L225.23-28.95Q225.23-27.25 224.03-24.65L224.03-24.65Q219.73-15.1 213.78-9.65L213.78-9.65ZM214.18-11.25Q216.73-13.85 219.23-17.8 221.73-21.75 222.9-24.53 224.08-27.3 224.08-28.3 224.08-29.3 223.73-29.3L223.73-29.3Q223.23-29.3 221.83-27.33 220.43-25.35 218.05-20.23 215.68-15.1 214.18-11.25L214.18-11.25ZM220.38-4L220.38-4Q220.38-8.15 224.38-17.9L224.38-17.9 221.78-17.9Q221.53-17.9 221.45-18.18 221.38-18.45 221.5-18.73 221.63-19 221.88-19L221.88-19 224.88-19Q226.68-22.95 228.23-25.6 229.78-28.25 231.08-29.18 232.38-30.1 232.95-30.1 233.53-30.1 233.78-30L233.78-30Q234.93-29.45 234.93-27.73 234.93-26 233.78-23.55 232.63-21.1 231.53-19L231.53-19 233.93-19Q234.18-19 234.25-18.73 234.33-18.45 234.2-18.18 234.08-17.9 233.83-17.9L233.83-17.9 230.93-17.9Q228.18-13.25 224.28-9.65L224.28-9.65 223.13-4.55Q222.98-3.9 222.98-3.28 222.98-2.65 223.33-2 223.68-1.35 224.43-1.35L224.43-1.35Q225.28-1.35 226.33-1.95L226.33-1.95Q228.73-3.75 231.63-9.5L231.63-9.5Q231.83-9.95 232.1-10.05 232.38-10.15 232.43-9.93 232.48-9.7 232.28-9.2L232.28-9.2Q230.63-5.75 229.68-4.3L229.68-4.3Q226.98 0.05 223.93 0.05L223.93 0.05Q222.38 0.05 221.38-1.1 220.38-2.25 220.38-4ZM227.93-19L230.43-19Q233.73-24.9 233.73-27.2L233.73-27.2Q233.73-28.2 233.38-28.2L233.38-28.2Q232.83-28.2 231.7-26.6 230.58-25 227.93-19L227.93-19ZM229.78-17.9L229.78-17.9 227.43-17.9Q226.83-16.5 224.73-11.25L224.73-11.25Q227.43-14.05 229.78-17.9ZM235.87-0.95L235.87-0.95Q236.52-0.85 236.77-0.85L236.77-0.85Q238.77-0.85 240.72-3.2L240.72-3.2Q241.77-4.5 244.47-9.75L244.47-9.75Q244.57-10 244.82-10L244.82-10Q245.27-10.05 245.27-9.65L245.27-9.65Q245.27-9.55 245.05-9.08 244.82-8.6 244.62-8.13 244.42-7.65 243.97-6.75 243.52-5.85 243.2-5.3 242.87-4.75 242.37-3.95 241.87-3.15 241.37-2.7L241.37-2.7 240.32-1.6Q239.47-0.75 238.32-0.4L238.32-0.4Q236.47 0.2 234.72-0.3L234.72-0.3Q233.57 0.2 232.67 0.2L232.67 0.2Q229.12 0.2 228.37-2.6L228.37-2.6Q228.22-3.25 228.22-4.17 228.22-5.1 228.85-5.95 229.47-6.8 230.17-6.85L230.17-6.85Q232.72-11.7 234.52-15.6L234.52-15.6Q236.52-19.85 239.17-19.85L239.17-19.85Q239.87-19.85 240.55-19.53 241.22-19.2 241.05-18.8 240.87-18.4 240.32-18.65 239.77-18.9 239.37-18.9 238.97-18.9 238.67-18.75L238.67-18.75Q236.97-17.95 236.97-15.3L236.97-15.3Q236.97-13.9 237.37-13 237.77-12.1 238.27-11.05L238.27-11.05Q239.42-8.45 239.42-6.8L239.42-6.8Q239.42-5.15 238.37-3.55 237.32-1.95 235.87-0.95ZM234.17-1.3L234.17-1.3Q236.37-3 236.37-6.8L236.37-6.8Q236.37-8.35 236.02-11.05 235.67-13.75 235.67-14.7 235.67-15.65 235.72-16L235.72-16Q231.92-8.4 231.02-6.75L231.02-6.75Q232.07-6.75 232.07-5.25L232.07-5.25Q232.07-2.3 234.17-1.3ZM230.42-2.65L230.42-2.65Q230.42-2.35 230.47-2L230.47-2Q230.87-0.65 232.32-0.65L232.32-0.65Q232.92-0.65 233.32-0.85L233.32-0.85Q231.47-2 231.32-4.6L231.32-4.6Q230.42-3.7 230.42-2.65ZM246.62-7.7L246.62-7.7Q245.92-6 245.92-3.9L245.92-3.9Q245.92-2.5 246.55-1.68 247.17-0.85 248.32-0.85L248.32-0.85Q252.87-0.85 256.57-9.4L256.57-9.4Q256.92-10.2 257.42-10.1L257.42-10.1Q257.62-10.05 257.62-9.85 257.62-9.65 256.5-7.23 255.37-4.8 254.22-3.3L254.22-3.3Q251.67 0.2 247.92 0.2L247.92 0.2Q245.92 0.2 244.52-1.1 243.12-2.4 243.12-4.65 243.12-6.9 244.2-9.43 245.27-11.95 247.12-14.13 248.97-16.3 251.37-17.3L251.37-17.3Q252.52-17.8 253.57-17.8 254.62-17.8 255.52-17.2L255.52-17.2Q256.37-16.5 256.37-15.65L256.37-15.65Q256.37-12.65 252.77-9.9L252.77-9.9Q251.67-9.05 249.67-8.38 247.67-7.7 246.62-7.7ZM255.02-15.7L255.02-15.7Q255.02-16.7 254.22-16.7L254.22-16.7Q252.82-16.7 249.97-13.25L249.97-13.25Q248.27-11.15 246.97-8.55L246.97-8.55Q247.82-8.55 249.45-9.15 251.07-9.75 252.27-10.75L252.27-10.75Q255.02-13.1 255.02-15.7ZM270.02-17.45L270.02-17.45 269.77-16.55Q267.22-8.6 265.07-4.95L265.07-4.95Q261.92 0.35 258.47 0.35L258.47 0.35Q255.67 0.35 255.67-2.35L255.67-2.35Q255.67-4.4 257.17-8.7L257.17-8.7Q256.67-7.9 256.39-8.18 256.12-8.45 256.27-8.85L256.27-8.85 257.17-10.55Q258.12-12.5 258.12-14.45 258.12-16.4 257.32-16.75L257.32-16.75Q260.32-17.25 260.82-17.23 261.32-17.2 261.44-16.8 261.57-16.4 261.57-15.9L261.57-15.9Q261.57-12.85 259.99-8.7 258.42-4.55 258.42-3.13 258.42-1.7 258.87-1.48 259.32-1.25 259.77-1.25L259.77-1.25Q261.07-1.25 262.72-3.35 264.37-5.45 266.02-9.55L266.02-9.55Q265.32-11.15 265.32-12.38 265.32-13.6 265.62-14.55L265.62-14.55Q266.52-17.4 268.47-18.1L268.47-18.1Q268.87-18.25 269.22-18.25L269.22-18.25Q270.02-18.25 270.02-17.45ZM285.02-13.55Q284.12-12.65 282.47-9.47 280.82-6.3 280.49-4.73 280.17-3.15 280.17-2.18 280.17-1.2 280.92-1.2L280.92-1.2Q281.87-1.2 283.27-2.95L283.27-2.95Q285.32-5.5 287.32-9.6L287.32-9.6Q287.52-10.05 287.77-10.1L287.77-10.1Q288.17-10.25 288.17-9.8L288.17-9.8Q288.17-9.55 288.02-9.2L288.02-9.2Q283.42 0.1 280.27 0.1L280.27 0.1Q278.82 0.1 277.92-1.3L277.92-1.3Q277.47-2.05 277.47-3.3 277.47-4.55 277.97-6.35L277.97-6.35Q273.97 0.1 271.07 0.1L271.07 0.1Q270.27 0.1 269.62-0.4L269.62-0.4Q268.12-1.45 268.12-4L268.12-4Q268.12-8.9 272.37-13.95L272.37-13.95Q274.77-16.75 278.27-17.6L278.27-17.6Q279.22-17.85 280.07-17.85L280.07-17.85Q282.37-17.85 283.97-16.25L283.97-16.25Q284.47-15.7 284.27-15.2 284.07-14.7 283.42-14.8L283.42-14.8Q282.87-16.6 281.02-16.6L281.02-16.6Q278.87-16.6 275.72-13.2L275.72-13.2Q273.92-11.2 272.37-8.5L272.37-8.5Q270.42-5.25 270.42-3.3 270.42-1.35 271.67-1.35L271.67-1.35Q274.67-1.35 279.52-10.55L279.52-10.55Q280.47-12.4 281.12-13.08 281.77-13.75 282.77-13.75L282.77-13.75Q282.97-13.75 283.79-13.6 284.62-13.45 285.02-13.55L285.02-13.55Z" opacity="1" transform="matrix(1,0,0,1,0,0)" fill="#6a6363" class="wordmark-text-0" data-fill-palette-color="quaternary" id="text-0"></path></svg></g></svg></g><g transform="matrix(1,0,0,1,122.21567999999999,127.88912707270096)"><svg viewBox="0 0 151.08864 15.418881945499944" height="15.418881945499944" width="151.08864"><g transform="matrix(1,0,0,1,0,0)"><svg width="151.08864" viewBox="4.4 -37 460.51000000000005 47" height="15.418881945499944" data-palette-color="#6a6363"><path d="M6.45 0L6.45 0Q5.55 0 4.98-0.6 4.4-1.2 4.4-2.05L4.4-2.05 4.4-33Q4.4-33.85 4.98-34.43 5.55-35 6.4-35L6.4-35 23.95-35Q24.8-35 25.4-34.45 26-33.9 26-33.05L26-33.05Q26-32.25 25.4-31.7 24.8-31.15 23.95-31.15L23.95-31.15 8.2-31.15 8.5-31.55 8.5-19.3 8.25-19.85 21.7-19.85Q22.55-19.85 23.15-19.28 23.75-18.7 23.75-17.85L23.75-17.85Q23.75-17.1 23.15-16.53 22.55-15.95 21.7-15.95L21.7-15.95 8.15-15.95 8.5-16.4 8.5-2.05Q8.5-1.2 7.9-0.6 7.3 0 6.45 0ZM33.5 0L33.5 0Q32.65 0 32.07-0.6 31.5-1.2 31.5-2.05L31.5-2.05 31.5-23.85Q31.5-24.7 32.07-25.28 32.65-25.85 33.5-25.85L33.5-25.85Q34.4-25.85 34.95-25.28 35.5-24.7 35.5-23.85L35.5-23.85 35.5-17.25 34.9-18.3Q35.2-19.85 35.97-21.33 36.75-22.8 37.95-23.98 39.15-25.15 40.7-25.83 42.25-26.5 44.1-26.5L44.1-26.5Q45.2-26.5 46.12-25.98 47.05-25.45 47.05-24.5L47.05-24.5Q47.05-23.45 46.5-22.95 45.95-22.45 45.25-22.45L45.25-22.45Q44.6-22.45 44-22.73 43.4-23 42.5-23L42.5-23Q41.25-23 40.02-22.33 38.8-21.65 37.77-20.4 36.75-19.15 36.12-17.57 35.5-16 35.5-14.2L35.5-14.2 35.5-2.05Q35.5-1.2 34.92-0.6 34.35 0 33.5 0ZM74.75-13L74.75-13Q74.75-9.1 73.05-6.05 71.34-3 68.42-1.25 65.5 0.5 61.8 0.5L61.8 0.5Q58.14 0.5 55.22-1.25 52.3-3 50.57-6.05 48.84-9.1 48.84-13L48.84-13Q48.84-16.9 50.57-19.95 52.3-23 55.22-24.75 58.14-26.5 61.8-26.5L61.8-26.5Q65.5-26.5 68.42-24.75 71.34-23 73.05-19.95 74.75-16.9 74.75-13ZM70.75-13L70.75-13Q70.75-15.9 69.57-18.1 68.39-20.3 66.37-21.55 64.34-22.8 61.8-22.8L61.8-22.8Q59.3-22.8 57.24-21.55 55.2-20.3 54.02-18.1 52.84-15.9 52.84-13L52.84-13Q52.84-10.15 54.02-7.95 55.2-5.75 57.24-4.48 59.3-3.2 61.8-3.2L61.8-3.2Q64.34-3.2 66.37-4.48 68.39-5.75 69.57-7.95 70.75-10.15 70.75-13ZM93.39-26.5L93.39-26.5Q96.79-26.5 98.74-25.1 100.69-23.7 101.52-21.35 102.34-19 102.34-16.1L102.34-16.1 102.34-2.05Q102.34-1.2 101.77-0.6 101.19 0 100.34 0L100.34 0Q99.49 0 98.92-0.6 98.34-1.2 98.34-2.05L98.34-2.05 98.34-16Q98.34-17.9 97.77-19.43 97.19-20.95 95.87-21.88 94.54-22.8 92.24-22.8L92.24-22.8Q90.14-22.8 88.39-21.88 86.64-20.95 85.59-19.43 84.54-17.9 84.54-16L84.54-16 84.54-2.05Q84.54-1.2 83.97-0.6 83.39 0 82.54 0L82.54 0Q81.69 0 81.12-0.6 80.54-1.2 80.54-2.05L80.54-2.05 80.54-23.85Q80.54-24.7 81.12-25.28 81.69-25.85 82.54-25.85L82.54-25.85Q83.44-25.85 83.99-25.28 84.54-24.7 84.54-23.85L84.54-23.85 84.54-20.3 83.54-19.2Q83.79-20.5 84.69-21.83 85.59-23.15 86.94-24.2 88.29-25.25 89.94-25.88 91.59-26.5 93.39-26.5ZM108.74-25.7L108.74-25.7 120.49-25.7Q121.29-25.7 121.82-25.15 122.34-24.6 122.34-23.85L122.34-23.85Q122.34-23.05 121.82-22.53 121.29-22 120.49-22L120.49-22 108.74-22Q107.99-22 107.44-22.55 106.89-23.1 106.89-23.9L106.89-23.9Q106.89-24.65 107.44-25.18 107.99-25.7 108.74-25.7ZM113.99-32.5L113.99-32.5Q114.84-32.5 115.39-31.93 115.94-31.35 115.94-30.5L115.94-30.5 115.94-6.35Q115.94-5.15 116.29-4.55 116.64-3.95 117.22-3.73 117.79-3.5 118.34-3.5L118.34-3.5Q118.84-3.5 119.22-3.68 119.59-3.85 120.09-3.85L120.09-3.85Q120.59-3.85 121.02-3.38 121.44-2.9 121.44-2.15L121.44-2.15Q121.44-1.25 120.39-0.63 119.34 0 118.04 0L118.04 0Q117.34 0 116.32-0.1 115.29-0.2 114.29-0.75 113.29-1.3 112.62-2.58 111.94-3.85 111.94-6.15L111.94-6.15 111.94-30.5Q111.94-31.35 112.54-31.93 113.14-32.5 113.99-32.5ZM130.59-35L130.59-35 148.39-35Q149.24-35 149.84-34.45 150.44-33.9 150.44-33.05L150.44-33.05Q150.44-32.2 149.84-31.68 149.24-31.15 148.39-31.15L148.39-31.15 132.29-31.15 132.74-32 132.74-19.35 132.24-19.9 146.14-19.9Q146.99-19.9 147.59-19.35 148.19-18.8 148.19-17.95L148.19-17.95Q148.19-17.1 147.59-16.57 146.99-16.05 146.14-16.05L146.14-16.05 132.39-16.05 132.74-16.5 132.74-3.55 132.44-3.9 148.39-3.9Q149.24-3.9 149.84-3.3 150.44-2.7 150.44-1.95L150.44-1.95Q150.44-1.1 149.84-0.55 149.24 0 148.39 0L148.39 0 130.59 0Q129.74 0 129.16-0.6 128.59-1.2 128.59-2.05L128.59-2.05 128.59-33Q128.59-33.85 129.16-34.43 129.74-35 130.59-35ZM169.24-26.5L169.24-26.5Q172.63-26.5 174.59-25.1 176.53-23.7 177.36-21.35 178.19-19 178.19-16.1L178.19-16.1 178.19-2.05Q178.19-1.2 177.61-0.6 177.03 0 176.19 0L176.19 0Q175.34 0 174.76-0.6 174.19-1.2 174.19-2.05L174.19-2.05 174.19-16Q174.19-17.9 173.61-19.43 173.03-20.95 171.71-21.88 170.38-22.8 168.09-22.8L168.09-22.8Q165.99-22.8 164.24-21.88 162.49-20.95 161.44-19.43 160.38-17.9 160.38-16L160.38-16 160.38-2.05Q160.38-1.2 159.81-0.6 159.24 0 158.38 0L158.38 0Q157.53 0 156.96-0.6 156.38-1.2 156.38-2.05L156.38-2.05 156.38-23.85Q156.38-24.7 156.96-25.28 157.53-25.85 158.38-25.85L158.38-25.85Q159.28-25.85 159.84-25.28 160.38-24.7 160.38-23.85L160.38-23.85 160.38-20.3 159.38-19.2Q159.63-20.5 160.53-21.83 161.44-23.15 162.78-24.2 164.13-25.25 165.78-25.88 167.44-26.5 169.24-26.5ZM206.63-37L206.63-37Q207.53-37 208.08-36.43 208.63-35.85 208.63-35L208.63-35 208.63-2.05Q208.63-1.2 208.06-0.6 207.48 0 206.63 0L206.63 0Q205.78 0 205.21-0.6 204.63-1.2 204.63-2.05L204.63-2.05 204.63-6.8 205.58-7.15Q205.58-5.95 204.86-4.63 204.13-3.3 202.81-2.15 201.48-1 199.73-0.25 197.98 0.5 195.93 0.5L195.93 0.5Q192.53 0.5 189.83-1.25 187.13-3 185.56-6.05 183.98-9.1 183.98-13L183.98-13Q183.98-16.95 185.56-20 187.13-23.05 189.81-24.78 192.48-26.5 195.83-26.5L195.83-26.5Q197.93-26.5 199.76-25.8 201.58-25.1 202.98-23.9 204.38-22.7 205.16-21.25 205.93-19.8 205.93-18.35L205.93-18.35 204.63-18.65 204.63-35Q204.63-35.85 205.21-36.43 205.78-37 206.63-37ZM196.33-3.2L196.33-3.2Q198.88-3.2 200.78-4.48 202.68-5.75 203.78-7.98 204.88-10.2 204.88-13L204.88-13Q204.88-15.85 203.78-18.05 202.68-20.25 200.76-21.53 198.83-22.8 196.33-22.8L196.33-22.8Q193.88-22.8 191.96-21.53 190.03-20.25 188.93-18.05 187.83-15.85 187.83-13L187.83-13Q187.83-10.25 188.93-8.03 190.03-5.8 191.96-4.5 193.88-3.2 196.33-3.2ZM232.48-35L244.98-35Q248.63-35 251.4-33.63 254.18-32.25 256.03-29.8 257.88-27.35 258.8-24.18 259.73-21 259.73-17.5L259.73-17.5Q259.73-12.7 258.08-8.72 256.43-4.75 253.18-2.38 249.93 0 244.98 0L244.98 0 232.48 0Q231.63 0 231.05-0.6 230.48-1.2 230.48-2.05L230.48-2.05 230.48-33Q230.48-33.85 231.05-34.43 231.63-35 232.48-35L232.48-35ZM234.33-3.9L244.48-3.9Q248.33-3.9 250.75-5.75 253.18-7.6 254.3-10.7 255.43-13.8 255.43-17.5L255.43-17.5Q255.43-20.2 254.8-22.68 254.18-25.15 252.85-27.05 251.53-28.95 249.45-30.05 247.38-31.15 244.48-31.15L244.48-31.15 234.23-31.15 234.63-31.55 234.63-3.4 234.33-3.9ZM277.77 0.5L277.77 0.5Q273.77 0.5 270.77-1.2 267.77-2.9 266.12-5.88 264.47-8.85 264.47-12.75L264.47-12.75Q264.47-17.1 266.2-20.18 267.92-23.25 270.67-24.88 273.42-26.5 276.52-26.5L276.52-26.5Q278.87-26.5 281-25.65 283.12-24.8 284.8-23.18 286.47-21.55 287.47-19.28 288.47-17 288.52-14.2L288.52-14.2Q288.47-13.4 287.87-12.85 287.27-12.3 286.47-12.3L286.47-12.3 266.72-12.3 265.82-15.75 285.07-15.75 284.27-15.05 284.27-16.15Q284.12-18.2 282.95-19.68 281.77-21.15 280.07-21.95 278.37-22.75 276.52-22.75L276.52-22.75Q275.02-22.75 273.55-22.23 272.07-21.7 270.9-20.53 269.72-19.35 269.02-17.5 268.32-15.65 268.32-13.05L268.32-13.05Q268.32-10.15 269.5-7.95 270.67-5.75 272.77-4.48 274.87-3.2 277.62-3.2L277.62-3.2Q279.42-3.2 280.72-3.65 282.02-4.1 282.95-4.78 283.87-5.45 284.52-6.15L284.52-6.15Q285.17-6.6 285.82-6.6L285.82-6.6Q286.52-6.6 287.02-6.1 287.52-5.6 287.52-4.9L287.52-4.9Q287.52-4.05 286.72-3.4L286.72-3.4Q285.27-1.85 282.9-0.68 280.52 0.5 277.77 0.5ZM294.02-26.3L294.02-26.3Q294.62-26.3 295.17-25.98 295.72-25.65 295.97-25.05L295.97-25.05 304.27-5.55 303.47-5.15 311.92-25Q312.47-26.35 313.77-26.3L313.77-26.3Q314.52-26.3 315.07-25.8 315.62-25.3 315.62-24.55L315.62-24.55Q315.62-24.25 315.55-23.98 315.47-23.7 315.37-23.5L315.37-23.5 305.72-1.3Q305.17-0.05 303.97 0L303.97 0Q303.32 0.05 302.75-0.28 302.17-0.6 301.92-1.3L301.92-1.3 292.27-23.45Q292.17-23.65 292.1-23.9 292.02-24.15 292.02-24.5L292.02-24.5Q292.02-25.15 292.55-25.73 293.07-26.3 294.02-26.3ZM332.47 0.5L332.47 0.5Q328.47 0.5 325.47-1.2 322.47-2.9 320.82-5.88 319.17-8.85 319.17-12.75L319.17-12.75Q319.17-17.1 320.89-20.18 322.62-23.25 325.37-24.88 328.12-26.5 331.22-26.5L331.22-26.5Q333.57-26.5 335.69-25.65 337.82-24.8 339.49-23.18 341.17-21.55 342.17-19.28 343.17-17 343.22-14.2L343.22-14.2Q343.17-13.4 342.57-12.85 341.97-12.3 341.17-12.3L341.17-12.3 321.42-12.3 320.52-15.75 339.77-15.75 338.97-15.05 338.97-16.15Q338.82-18.2 337.64-19.68 336.47-21.15 334.77-21.95 333.07-22.75 331.22-22.75L331.22-22.75Q329.72-22.75 328.24-22.23 326.77-21.7 325.59-20.53 324.42-19.35 323.72-17.5 323.02-15.65 323.02-13.05L323.02-13.05Q323.02-10.15 324.19-7.95 325.37-5.75 327.47-4.48 329.57-3.2 332.32-3.2L332.32-3.2Q334.12-3.2 335.42-3.65 336.72-4.1 337.64-4.78 338.57-5.45 339.22-6.15L339.22-6.15Q339.87-6.6 340.52-6.6L340.52-6.6Q341.22-6.6 341.72-6.1 342.22-5.6 342.22-4.9L342.22-4.9Q342.22-4.05 341.42-3.4L341.42-3.4Q339.97-1.85 337.59-0.68 335.22 0.5 332.47 0.5ZM353.37-35L353.37-2.05Q353.37-1.2 352.77-0.6 352.17 0 351.32 0L351.32 0Q350.47 0 349.92-0.6 349.37-1.2 349.37-2.05L349.37-2.05 349.37-35Q349.37-35.85 349.94-36.43 350.52-37 351.37-37L351.37-37Q352.27-37 352.82-36.43 353.37-35.85 353.37-35L353.37-35ZM384.91-13L384.91-13Q384.91-9.1 383.21-6.05 381.51-3 378.59-1.25 375.66 0.5 371.96 0.5L371.96 0.5Q368.31 0.5 365.39-1.25 362.46-3 360.74-6.05 359.01-9.1 359.01-13L359.01-13Q359.01-16.9 360.74-19.95 362.46-23 365.39-24.75 368.31-26.5 371.96-26.5L371.96-26.5Q375.66-26.5 378.59-24.75 381.51-23 383.21-19.95 384.91-16.9 384.91-13ZM380.91-13L380.91-13Q380.91-15.9 379.74-18.1 378.56-20.3 376.54-21.55 374.51-22.8 371.96-22.8L371.96-22.8Q369.46-22.8 367.41-21.55 365.36-20.3 364.19-18.1 363.01-15.9 363.01-13L363.01-13Q363.01-10.15 364.19-7.95 365.36-5.75 367.41-4.48 369.46-3.2 371.96-3.2L371.96-3.2Q374.51-3.2 376.54-4.48 378.56-5.75 379.74-7.95 380.91-10.15 380.91-13ZM403.46-26.25L403.46-26.25Q406.86-26.25 409.56-24.55 412.26-22.85 413.84-19.85 415.41-16.85 415.41-12.95L415.41-12.95Q415.41-9.1 413.84-6.08 412.26-3.05 409.59-1.33 406.91 0.4 403.56 0.4L403.56 0.4Q401.71 0.4 400.09-0.18 398.46-0.75 397.14-1.68 395.81-2.6 394.91-3.78 394.01-4.95 393.61-6.1L393.61-6.1 394.71-6.8 394.71 7.95Q394.71 8.8 394.16 9.4 393.61 10 392.71 10L392.71 10Q391.86 10 391.29 9.43 390.71 8.85 390.71 7.95L390.71 7.95 390.71-24Q390.71-24.85 391.29-25.43 391.86-26 392.71-26L392.71-26Q393.61-26 394.16-25.43 394.71-24.85 394.71-24L394.71-24 394.71-19.55 393.96-19.95Q394.31-21.2 395.19-22.35 396.06-23.5 397.34-24.38 398.61-25.25 400.19-25.75 401.76-26.25 403.46-26.25ZM403.01-22.55L403.01-22.55Q400.51-22.55 398.59-21.3 396.66-20.05 395.59-17.9 394.51-15.75 394.51-12.95L394.51-12.95Q394.51-10.2 395.59-8 396.66-5.8 398.59-4.55 400.51-3.3 403.01-3.3L403.01-3.3Q405.51-3.3 407.41-4.55 409.31-5.8 410.41-8 411.51-10.2 411.51-12.95L411.51-12.95Q411.51-15.75 410.41-17.9 409.31-20.05 407.41-21.3 405.51-22.55 403.01-22.55ZM432.86 0.5L432.86 0.5Q428.86 0.5 425.86-1.2 422.86-2.9 421.21-5.88 419.56-8.85 419.56-12.75L419.56-12.75Q419.56-17.1 421.28-20.18 423.01-23.25 425.76-24.88 428.51-26.5 431.61-26.5L431.61-26.5Q433.96-26.5 436.08-25.65 438.21-24.8 439.88-23.18 441.56-21.55 442.56-19.28 443.56-17 443.61-14.2L443.61-14.2Q443.56-13.4 442.96-12.85 442.36-12.3 441.56-12.3L441.56-12.3 421.81-12.3 420.91-15.75 440.16-15.75 439.36-15.05 439.36-16.15Q439.21-18.2 438.03-19.68 436.86-21.15 435.16-21.95 433.46-22.75 431.61-22.75L431.61-22.75Q430.11-22.75 428.63-22.23 427.16-21.7 425.98-20.53 424.81-19.35 424.11-17.5 423.41-15.65 423.41-13.05L423.41-13.05Q423.41-10.15 424.58-7.95 425.76-5.75 427.86-4.48 429.96-3.2 432.71-3.2L432.71-3.2Q434.51-3.2 435.81-3.65 437.11-4.1 438.03-4.78 438.96-5.45 439.61-6.15L439.61-6.15Q440.26-6.6 440.91-6.6L440.91-6.6Q441.61-6.6 442.11-6.1 442.61-5.6 442.61-4.9L442.61-4.9Q442.61-4.05 441.81-3.4L441.81-3.4Q440.36-1.85 437.98-0.68 435.61 0.5 432.86 0.5ZM451.36 0L451.36 0Q450.51 0 449.93-0.6 449.36-1.2 449.36-2.05L449.36-2.05 449.36-23.85Q449.36-24.7 449.93-25.28 450.51-25.85 451.36-25.85L451.36-25.85Q452.26-25.85 452.81-25.28 453.36-24.7 453.36-23.85L453.36-23.85 453.36-17.25 452.76-18.3Q453.06-19.85 453.83-21.33 454.61-22.8 455.81-23.98 457.01-25.15 458.56-25.83 460.11-26.5 461.96-26.5L461.96-26.5Q463.06-26.5 463.98-25.98 464.91-25.45 464.91-24.5L464.91-24.5Q464.91-23.45 464.36-22.95 463.81-22.45 463.11-22.45L463.11-22.45Q462.46-22.45 461.86-22.73 461.26-23 460.36-23L460.36-23Q459.11-23 457.88-22.33 456.66-21.65 455.63-20.4 454.61-19.15 453.98-17.57 453.36-16 453.36-14.2L453.36-14.2 453.36-2.05Q453.36-1.2 452.78-0.6 452.21 0 451.36 0Z" opacity="1" transform="matrix(1,0,0,1,0,0)" fill="#6a6363" class="slogan-text-1" data-fill-palette-color="secondary" id="text-1"></path></svg></g></svg></g></svg></g></svg></g><g></g></svg></g><defs></defs></svg><rect width="395.52" height="143.3080090182009" fill="none" stroke="none" visibility="hidden"></rect></g></svg></g></svg>